<?xml version='1.0' encoding='utf-8'?>
<!DOCTYPE svg PUBLIC '-//W3C//DTD SVG 1.1//EN' 'http://www.w3.org/Graphics/SVG/1.1/DTD/svg11.dtd'>
<svg version="1.1" xmlns="http://www.w3.org/2000/svg" viewBox="0 0 512 512" xmlns:xlink="http://www.w3.org/1999/xlink" enable-background="new 0 0 512 512">
<path fill="none" d="M-1-1h514v514H-1z"/><g><g stroke="null"><path d="M405.448 106.435c7.018 7.073 13.648 14.532 19.727 22.434l-3.482-4.476c12.101 15.748 22.213 32.932 29.949 51.222-.718-1.768-1.492-3.537-2.21-5.305a234.496 234.496 0 0116.245 59.566 212.4 212.4 0 01-.774-5.857 238.036 238.036 0 010 62.051 212.4 212.4 0 00.774-5.857 234.496 234.496 0 01-16.245 59.566c.718-1.768 1.492-3.537 2.21-5.305a235.477 235.477 0 01-29.949 51.222l3.482-4.476a237.877 237.877 0 01-42.16 42.16l4.475-3.48c-15.747 12.1-32.932 22.212-51.221 29.948 1.768-.719 3.536-1.492 5.304-2.21a234.496 234.496 0 01-59.565 16.244 212.4 212.4 0 015.857-.773 238.036 238.036 0 01-62.052 0 212.4 212.4 0 005.857.773 234.496 234.496 0 01-59.565-16.245c1.768.719 3.536 1.492 5.304 2.21a235.477 235.477 0 01-51.222-29.948l4.476 3.481a237.877 237.877 0 01-42.16-42.16l3.481 4.476c-12.1-15.748-22.212-32.932-29.948-51.222.718 1.768 1.492 3.537 2.21 5.305a234.496 234.496 0 01-16.245-59.566 212.4 212.4 0 01.773 5.857 238.036 238.036 0 010-62.051 212.4 212.4 0 00-.773 5.857 234.496 234.496 0 0116.245-59.566c-.718 1.768-1.492 3.537-2.21 5.305a235.477 235.477 0 0129.948-51.222l-3.48 4.476a237.877 237.877 0 0142.159-42.16l-4.476 3.48c15.748-12.1 32.933-22.212 51.222-29.948-1.768.719-3.536 1.492-5.304 2.21a232.35 232.35 0 0159.565-16.3 212.4 212.4 0 01-5.857.774 238.036 238.036 0 0162.052 0 212.4 212.4 0 00-5.857-.774 234.496 234.496 0 0159.565 16.245c-1.768-.718-3.536-1.491-5.304-2.21a235.477 235.477 0 0151.221 29.949l-4.475-3.481a238.27 238.27 0 0122.433 19.781c8.178 8.178 23.152 8.786 31.275 0 8.067-8.786 8.73-22.544 0-31.275-36.58-36.413-84.43-61.996-135.486-70.506-25.031-4.199-50.283-5.249-75.48-1.933-13.537 1.768-26.964 4.199-40.115 8.067-12.874 3.757-25.473 8.73-37.629 14.366C100.55 47.091 60.102 85.327 34.684 130.968c-24.644 44.26-36.081 96.31-31.108 146.814 2.486 25.418 8.122 50.172 18.013 73.766 5.25 12.543 11.106 24.755 18.234 36.358 7.35 11.935 15.858 23.318 24.976 33.927 33.816 39.287 80.507 67.799 130.79 80.12 48.956 11.936 101.89 9.56 149.134-8.233 12.874-4.862 25.528-10.498 37.518-17.295 11.99-6.796 23.152-14.697 33.927-23.262 20.831-16.466 38.734-36.58 53.432-58.681 28.125-42.381 42.712-93.99 41.552-144.77-1.16-51-17.626-102.056-47.906-143.222-8.123-11.05-16.853-21.605-26.523-31.33-8.178-8.177-23.207-8.785-31.275 0-8.122 8.841-8.73 22.49 0 31.275z"/><path d="M108.23 434.873l8.73-8.73 23.925-23.926 35.309-35.308 43.21-43.21 47.187-47.188 47.63-47.63 44.592-44.591 37.518-37.519 27.075-27.075c4.255-4.254 8.565-8.454 12.764-12.764l.553-.552c8.178-8.178 8.786-23.208 0-31.275-8.84-8.122-22.544-8.73-31.275 0l-8.73 8.73-23.926 23.926-35.308 35.308-43.21 43.21-47.188 47.188-47.63 47.63-44.591 44.592-37.519 37.518-27.075 27.075c-4.254 4.255-8.564 8.454-12.764 12.764l-.552.553c-8.178 8.178-8.786 23.207 0 31.274 8.84 8.123 22.544 8.73 31.274 0h0z"/></g></g></svg>
