<?xml version='1.0' encoding='utf-8'?>
<!DOCTYPE svg PUBLIC '-//W3C//DTD SVG 1.1//EN' 'http://www.w3.org/Graphics/SVG/1.1/DTD/svg11.dtd'>
<svg version="1.1" xmlns="http://www.w3.org/2000/svg" viewBox="0 0 512 512" xmlns:xlink="http://www.w3.org/1999/xlink" enable-background="new 0 0 512 512">

<g transform="translate(0.000000,512.000000) scale(0.100000,-0.100000)"
fill="#000000" stroke="none">
<path d="M763 4255 c-35 -8 -86 -26 -114 -41 -71 -39 -162 -139 -191 -211
l-23 -58 0 -1385 0 -1385 23 -58 c51 -124 191 -235 327 -257 38 -6 702 -10
1780 -10 1847 0 1795 -1 1896 50 54 28 142 111 173 164 59 101 57 25 54 1517
l-3 1364 -23 58 c-51 124 -191 235 -327 257 -38 6 -701 10 -1785 9 -1413 0
-1736 -3 -1787 -14z m1587 -1695 l0 -1280 -750 0 -750 0 0 1280 0 1280 750 0
750 0 0 -1280z m670 1239 c-23 -44 -60 -178 -60 -216 l0 -23 164 0 163 0 5 65
c11 129 87 204 216 212 156 10 232 -91 203 -271 -7 -39 -22 -93 -35 -121 -24
-51 -157 -203 -504 -575 l-182 -194 0 -108 0 -108 353 0 c193 0 443 -3 555 -7
l202 -6 0 131 0 132 -350 2 -351 3 250 274 c251 274 298 337 357 471 27 60 29
74 29 185 -1 90 -5 129 -17 158 l-17 37 135 0 134 0 0 -1280 0 -1280 -176 0
-176 0 -55 39 -55 40 39 20 c61 31 122 97 156 169 30 63 32 74 32 182 0 105
-2 120 -28 175 -53 113 -158 195 -300 232 -86 23 -289 22 -377 -1 -90 -24
-175 -72 -233 -130 -57 -57 -113 -167 -123 -238 l-7 -48 160 0 161 0 10 43
c39 154 321 191 399 52 18 -31 23 -56 23 -113 0 -84 -20 -133 -72 -177 -51
-43 -86 -53 -211 -61 l-117 -7 0 -88 0 -89 -275 0 -275 0 0 1280 0 1280 135 0
135 0 -20 -41z"/>
<path d="M1538 3208 l-338 -121 0 -128 c0 -71 4 -129 8 -129 5 0 88 25 185 55
97 30 179 55 182 55 3 0 5 -277 5 -615 l0 -615 160 0 160 0 0 810 c0 642 -3
810 -12 810 -7 -1 -165 -55 -350 -122z"/>
</g>
</svg>
