<?xml version='1.0' encoding='utf-8'?>
<!DOCTYPE svg PUBLIC '-//W3C//DTD SVG 1.1//EN' 'http://www.w3.org/Graphics/SVG/1.1/DTD/svg11.dtd'>
<svg version="1.1" xmlns="http://www.w3.org/2000/svg" viewBox="0 0 512 512" xmlns:xlink="http://www.w3.org/1999/xlink" enable-background="new 0 0 512 512">
<path fill="none" d="M-1-1h514v514H-1z"/><g><g stroke="null" fill="#010002"><path d="M255.611 0C114.44 0 0 114.44 0 255.611s114.44 255.611 255.611 255.611 255.611-114.44 255.611-255.611S396.782 0 255.611 0zm0 461.75c-113.665 0-206.138-92.474-206.138-206.139S141.946 49.473 255.61 49.473s206.138 92.473 206.138 206.138-92.474 206.138-206.138 206.138z"/><path d="M86.966 234.997h57.703v41.227H86.966v-41.227zM190.207 425.98l-14.249-8.296 21.934-37.666 14.256 8.303-21.94 37.659zm-73.08-66.797l-8.245-14.28 37.806-21.843 8.245 14.273-37.805 21.85zm29.56-171.012l-37.805-21.842 8.246-14.28 37.814 21.85-8.254 14.272zm51.214-56.952l-21.934-37.657 14.257-8.296 21.933 37.657-14.256 8.296zm171.77 102.797c-1.673 5.153-2.522 13.086-2.522 23.796 0 10.224.85 18.042 2.523 23.45 1.674 5.427 5.112 8.131 10.307 8.131s8.6-2.704 10.216-8.13c1.609-5.41 2.424-13.226 2.424-23.45 0-10.711-.815-18.644-2.424-23.797-1.616-5.153-5.02-7.726-10.216-7.726-5.204-.009-8.633 2.573-10.307 7.726z"/><path d="M252.106 70.705v369.812c102.121 0 184.906-82.785 184.906-184.906S354.227 70.705 252.106 70.705zm80.377 224.36c-5.21 5.698-12.92 8.56-23.137 8.56-12.582 0-21.322-4.107-26.229-12.326-1.492-2.549-2.597-5.541-3.323-9.004-.932-4.461 2.738-8.17 7.281-8.17h.693c4.551 0 8.164 2.044 8.6 4.51.288 1.615.743 3.058 1.352 4.32 2.127 4.296 5.987 6.44 11.576 6.44 3.414 0 6.407-1.187 8.955-3.537 2.556-2.35 3.834-5.723 3.834-10.15 0-5.845-2.366-9.753-7.092-11.708-1.566-.642-3.653-1.105-6.274-1.368-3.546-.372-6.448-3.093-6.448-6.548s2.697-6.225 6.004-6.58c2.572-.272 4.51-.716 5.862-1.327 3.867-1.715 5.797-5.196 5.797-10.43 0-3.398-.98-6.152-2.96-8.28s-4.767-3.19-8.361-3.19c-4.124 0-7.15 1.311-9.087 3.925-1.048 1.41-1.806 3.076-2.251 4.996-.71 2.969-4.181 5.491-8.691 5.491s-8.106-2.886-7.488-6.365a41.814 41.814 0 011.592-6.2c1.434-3.48 3.678-6.688 6.737-9.632 2.292-2.086 5.004-3.678 8.147-4.783 3.158-1.105 7.008-1.657 11.585-1.657 8.492 0 15.337 2.202 20.557 6.596 5.21 4.395 7.808 10.29 7.808 17.695 0 5.236-1.55 9.648-4.658 13.251a20.426 20.426 0 01-2.787 2.671c-1.69 1.312-1.491 2.201.372 3.472.94.652 1.987 1.5 3.15 2.565 4.462 4.13 6.687 9.77 6.687 16.927.006 7.526-2.607 14.14-7.803 19.837zm71.324-71.232c4.56 7.974 6.828 19.303 6.828 33.98 0 14.677-2.268 25.98-6.828 33.913-4.567 7.932-12.508 11.9-23.837 11.9s-19.27-3.967-23.837-11.9c-4.56-7.931-6.828-19.236-6.828-33.914s2.268-26.006 6.828-33.979c4.567-7.974 12.508-11.957 23.837-11.957 11.329-.007 19.27 3.983 23.837 11.957z"/></g></g></svg>
