<svg id="Layer_1" xmlns="http://www.w3.org/2000/svg" viewBox="0 0 326.667 108.667">
  <style>
    .st1{display:inline;fill:#fff}.st2{fill:#a81524}
  </style>
  <path class="st2" d="M23.399 60.448c3.007-.798 6.041-1.096 9.155-.737 9.001 1.037 16.81 8.411 18.294 17.347.61 3.671.38 7.558-.563 10.016-.978-2.108-1.861-4.344-3.009-6.434-5.199-9.462-12.903-16.056-23.026-19.817-.271-.101-.566-.133-.851-.198v-.177zM58.702 25.323c.757 1.889 1.366 3.854 2.295 5.655C66.19 41.047 74.14 48.029 84.789 51.922c.138.05.271.115.406.173.01.087.021.174.031.261-1.682.251-3.358.65-5.049.731-11.63.554-21.319-7.825-22.485-19.405-.285-2.833.092-5.618.831-8.358.06-.001.12-.001.179-.001zM23.399 52.068c2.589-1.144 5.308-2.064 7.745-3.472 8.959-5.177 15.186-12.719 18.783-22.425.101-.272.146-.565.217-.848h.178c.292 2.284.823 4.566.836 6.852.058 10.433-8.403 19.705-18.78 20.801-2.901.306-5.741.118-8.544-.682-.138-.04-.29-.032-.435-.047v-.179zM191.059 81.829v-2.012h5.574V32.859h-5.56v-2.023h.972c13.341 0 26.682-.017 40.022.009 4.63.009 9.118.734 13.153 3.202 4.598 2.812 6.358 8.205 4.257 13.001-1.082 2.469-3.054 4.05-5.427 5.165-3.056 1.435-6.317 2.008-9.663 2.186-.411.022-.821.061-1.275.096v1.389c1.188.098 2.385.208 3.584.294 3.014.218 5.943.773 8.658 2.175 3.812 1.968 6.062 5.015 6.207 9.373.154 4.621-1.387 8.453-5.538 10.918-3.005 1.784-6.339 2.512-9.758 2.803-2.866.244-5.751.356-8.627.366-11.825.039-23.651.016-35.476.016h-1.103zm28.524-2.072c1.189 0 2.287.07 3.372-.015 2.324-.182 3.872-1.43 4.482-3.68.276-1.018.419-2.099.437-3.155.055-3.206.03-6.414.012-9.622-.004-.769-.048-1.547-.169-2.305-.269-1.677-.93-3.145-2.547-3.951-1.768-.881-3.659-.761-5.588-.68.001 7.834.001 15.576.001 23.408zm.027-46.88v21.33c1.252 0 2.442.071 3.621-.016 1.93-.143 3.488-1.679 3.576-4.03.165-4.443.118-8.898.024-13.345-.034-1.574-.961-2.802-2.463-3.435-1.513-.639-3.11-.625-4.758-.504zM292.552 67.542h-2.323c-.266-1.191-.455-2.389-.807-3.537-.783-2.555-2.226-4.646-4.589-6.007-1.24-.715-2.577-1.031-4.088-.884V79.64c6.197.91 11.567-.312 15.349-5.826 2.19-3.192 3.758-6.66 4.921-10.322.268-.844.603-1.277 1.523-1.106.315.058.65.009 1.111.009-.125 6.466-.249 12.887-.374 19.37h-50.707v-1.94h5.403V32.842h-5.413v-1.956h50.036c.128 5.898.257 11.788.386 17.744h-2.366c-.711-1.856-1.33-3.715-2.126-5.495-1.349-3.018-3.198-5.691-5.857-7.731-2.244-1.722-4.782-2.584-7.614-2.579-1.418.003-2.835 0-4.3 0v22.248c2.809.27 4.93-.955 6.692-2.971 1.727-1.976 2.413-4.384 2.734-6.958h2.408c.001 7.448.001 14.886.001 22.398zM141.656 57.999v-1.174-19.431c0-2.532-1.163-3.957-3.693-4.405-.923-.163-1.874-.166-2.856-.246v-1.838h15.349v1.92c-.789 0-1.553-.012-2.317.002-1.978.036-2.985.799-3.352 2.744-.224 1.187-.322 2.415-.324 3.626-.022 13.816-.014 27.631-.014 41.447v1.141c-.332.016-.617.042-.902.043-3.625.003-7.25-.013-10.874.016-.604.005-.951-.199-1.304-.679-9.61-13.059-19.238-26.105-28.863-39.152-.184-.249-.383-.486-.763-.673v.943c0 10.28-.03 20.56.034 30.84.009 1.452.328 2.948.772 4.338.511 1.6 1.816 2.352 3.514 2.352h2.296v1.948H93.137c-.032-.114-.07-.196-.076-.281-.132-1.66-.131-1.66 1.525-1.667 1.921-.007 3.136-.713 3.726-2.558.445-1.391.753-2.893.76-4.347.059-11.795.039-23.59.014-35.385-.001-.462-.206-.973-.455-1.374-.39-.626-.878-1.196-1.362-1.759-.938-1.09-2.083-1.752-3.582-1.625-.117.01-.238-.005-.355-.021-.055-.008-.105-.047-.223-.103v-1.805h.988c8.824 0 17.648.009 26.472-.018.687-.002 1.066.246 1.45.766 6.302 8.525 12.622 17.037 18.939 25.552.171.227.357.442.698.863zM158.895 79.812V32.835h-5.517v-1.946h34.367v1.932h-5.58v46.974h5.589v1.962h-34.319c-.034-.059-.082-.107-.086-.158-.158-1.787-.158-1.787 1.646-1.787h3.9zM58.608 87.154c-2.009-5.682-1.33-14.65 5.158-21.246 6.219-6.323 15.035-7.54 21.49-5.387-12.995 4.81-21.856 13.676-26.648 26.633zM62.159 56.333c.011 4.289-3.446 7.748-7.749 7.751-4.279.003-7.792-3.496-7.778-7.749.014-4.266 3.52-7.772 7.774-7.774 4.27-.003 7.742 3.478 7.753 7.772z"/>
</svg>
