<?xml version='1.0' encoding='utf-8'?>
<!DOCTYPE svg PUBLIC '-//W3C//DTD SVG 1.1//EN' 'http://www.w3.org/Graphics/SVG/1.1/DTD/svg11.dtd'>
<svg version="1.1" xmlns="http://www.w3.org/2000/svg" viewBox="0 0 512 512" xmlns:xlink="http://www.w3.org/1999/xlink" enable-background="new 0 0 512 512">
<defs><path d="M38.4 11.55Q32.853 6 25 6q-7.853 0-13.45 5.55Q6 17.147 6 25q0 7.853 5.55 13.4Q17.147 44 25 44q7.853 0 13.4-5.6Q44 32.853 44 25q0-7.853-5.6-13.45M25 14q4.547 0 7.75 3.2Q36 20.453 36 25t-3.25 7.75Q29.547 36 25 36q-4.547 0-7.8-3.25Q14 29.547 14 25q0-4.547 3.2-7.8Q20.453 14 25 14m69 61q0-7.853-5.6-13.45Q82.853 56 75 56q-7.853 0-13.45 5.55Q56 67.147 56 75q0 7.853 5.55 13.4Q67.147 94 75 94q7.853 0 13.4-5.6Q94 82.853 94 75m-11.25-7.8Q86 70.453 86 75t-3.25 7.75Q79.547 86 75 86q-4.547 0-7.8-3.25Q64 79.547 64 75q0-4.547 3.2-7.8Q70.453 64 75 64t7.75 3.2M95.65 10L90 4.35 4.35 90 10 95.65 95.65 10z" id="a"/></defs><path fill="none" d="M-1-1h514v514H-1z"/><g><use transform="matrix(5.52355 0 0 5.52355 -19.677 -19.677)" xlink:href="#a" stroke="null"/></g></svg>
