<svg xmlns="http://www.w3.org/2000/svg" viewBox="0 0 512 512"><defs><style>.fil0{fill:#000;fill-rule:nonzero}</style></defs><path fill="none" id="canvas_background" d="M-1-1h514v514H-1z"/><g><g stroke="null" id="svg_1"><path stroke="null" id="svg_2" d="M474.804 256.524c0-9.255 7.932-17.187 17.187-17.187 10.577 0 18.509 7.932 18.509 17.187 0 140.14-113.699 255.161-255.161 255.161-140.14 0-253.839-115.02-253.839-255.161C1.5 116.384 115.199 2.685 255.339 2.685c67.426 0 130.886 26.442 178.48 72.714l7.933-59.493C443.074 5.329 452.329-1.281 461.583.04c10.577 1.322 17.187 10.576 15.865 19.831l-13.22 97.834c-1.323 10.576-10.577 17.187-21.154 15.865L345.24 120.35c-9.254-1.322-15.865-10.577-14.543-21.153 1.322-9.255 10.577-15.865 19.832-14.543l47.594 6.61c-39.662-34.374-89.9-52.883-142.784-52.883-120.31 0-218.143 97.834-218.143 218.143S135.03 474.667 255.34 474.667c121.631 0 219.465-97.834 219.465-218.143z" class="fil0"/><path stroke="null" id="svg_3" d="M238.152 130.927c0-10.577 7.932-18.51 17.187-18.51 10.577 0 18.51 7.933 18.51 18.51v118.987l58.17 56.849c6.61 7.932 6.61 18.509 0 25.12-7.932 7.932-18.509 7.932-26.441 0l-62.138-62.138c-3.966-3.967-5.288-7.933-5.288-13.221V130.927z" class="fil0"/></g></g></svg>