<?xml version='1.0' encoding='utf-8'?>
<!DOCTYPE svg PUBLIC '-//W3C//DTD SVG 1.1//EN' 'http://www.w3.org/Graphics/SVG/1.1/DTD/svg11.dtd'>
<svg version="1.1" xmlns="http://www.w3.org/2000/svg" viewBox="0 0 512 512" xmlns:xlink="http://www.w3.org/1999/xlink" enable-background="new 0 0 512 512">
<path fill="none" d="M-1-1h514v514H-1z"/><g><g stroke="null"><path d="M337.531 116.968l-70.294 70.228c-8.94-4.326-20.355-2.698-27.2 4.146-4.503 4.482-6.978 10.456-6.978 16.766 0 6.354 2.43 12.329 6.934 16.832 4.548 4.504 10.545 6.978 16.854 6.978s12.285-2.452 16.743-6.933c7.29-7.268 8.985-18.326 4.415-27.445l70.071-70.027a7.367 7.367 0 002.185-5.261c0-2.051-.802-3.991-2.185-5.24-2.831-2.898-7.758-2.83-10.545-.044zm-74.464 97.45c-1.47 1.47-3.745 2.318-6.22 2.318h-.022c-2.497-.023-4.771-.87-6.265-2.386-1.65-1.627-2.586-3.857-2.586-6.198s.936-4.57 2.609-6.264c1.65-1.672 3.879-2.609 6.264-2.609s4.57.914 6.265 2.609c3.433 3.433 3.411 9.051-.045 12.53z"/><path d="M397.102 67.318c-37.7-37.722-87.818-58.456-141.124-58.456-53.262 0-103.335 20.712-140.946 58.322-37.7 37.656-58.478 87.73-58.478 140.968-.045 25.438 4.905 50.542 14.736 74.642l-.066.624 1.047 1.762c11.66 27.645 28.671 51.634 50.564 71.297a7.096 7.096 0 005.507 1.806c1.962-.133 3.768-.98 4.905-2.296 1.404-1.471 2.14-3.411 2.006-5.44a7.205 7.205 0 00-2.474-5.15c-18.66-16.765-33.509-36.92-44.121-59.927l21.536-8.94c1.806-.714 3.21-2.096 4.102-4.036a7.358 7.358 0 00-.066-5.752c-.758-1.806-2.319-3.255-4.214-4.013-1.895-.69-3.88-.669-5.418 0l-21.514 8.918c-6.777-18.215-10.59-37.076-11.348-56.137h23.41c4.124 0 7.446-3.322 7.446-7.447s-3.322-7.446-7.446-7.446h-23.41c.736-19.352 4.482-38.235 11.148-56.205l21.402 8.874c1.672.78 3.813.825 5.708.111 1.962-.736 3.522-2.207 4.28-4.035 1.583-3.768-.2-8.138-4.013-9.765L88.48 130.7a183.787 183.787 0 0131.948-47.531l16.454 16.475c1.337 1.36 3.232 2.163 5.194 2.185h.09c2.028 0 3.968-.78 5.373-2.185 2.809-2.876 2.786-7.602-.067-10.523l-16.476-16.498c14.18-13.131 30.187-23.81 47.554-31.88l8.985 21.714a7.467 7.467 0 009.698 3.99 7.356 7.356 0 004.035-4.057c.736-1.873.736-3.857 0-5.707l-8.962-21.648A183.173 183.173 0 01248.53 24v23.32c0 4.125 3.345 7.469 7.491 7.469 4.103 0 7.402-3.344 7.402-7.469V24a182.647 182.647 0 0156.205 11.036l-9.03 21.737c-.735 1.828-.735 3.835.023 5.752.78 1.806 2.229 3.255 3.656 3.812.959.468 2.051.691 3.255.691 3.054 0 5.752-1.783 6.889-4.57l8.985-21.715c17.367 8.026 33.352 18.772 47.576 31.904l-16.587 16.587c-2.876 2.898-2.854 7.624.044 10.567 2.876 2.81 7.692 2.765 10.523-.044l16.588-16.587c13.22 14.313 23.921 30.298 31.947 47.62l-21.848 9.008c-3.768 1.65-5.574 6.019-4.013 9.675 1.115 2.787 3.88 4.638 6.867 4.638.69 0 2.028-.09 2.853-.536l21.827-9.029c6.621 17.97 10.367 36.853 11.102 56.227h-23.565c-4.102 0-7.424 3.344-7.424 7.49 0 4.125 3.322 7.447 7.424 7.447l23.565-.022c-.758 19.017-4.592 37.856-11.415 56.137l-21.514-8.917c-1.761-.758-3.879-.758-5.73.044-1.872.758-3.321 2.252-3.99 3.924-.803 1.85-.825 3.88-.067 5.707.713 1.873 2.185 3.322 4.058 4.103l21.692 8.94c-10.679 22.963-25.527 43.14-44.143 59.905-1.45 1.27-2.34 3.077-2.541 5.172-.09 1.984.557 3.88 1.828 5.306 1.404 1.605 3.433 2.52 5.618 2.52 1.917 0 3.7-.67 4.972-1.895 21.714-19.486 39.216-44.166 50.63-71.343l.714-1.56.2-.67c9.81-24.1 14.804-49.203 14.848-74.641.023-53.284-20.667-103.38-58.344-141.102z"/></g></g></svg>
